<svg width="28" height="45" viewBox="0 0 28 45" xmlns="http://www.w3.org/2000/svg">
<style type="text/css">
	.st0{fill:#B2B09D;}
</style>
<path class="st0" d="M12,44.6h4.1l0-4C23.6,40.1,28,36.1,28,30.1c0-5.9-4.5-9-10.6-10.4l-1-0.2l0.1-8.6c2.3,0.5,3.7,2,3.9,4.2h7.2
	c-0.1-5.7-4.4-9.8-11-10.5l0-4.1h-4.1l0,4C5.7,5.1,0.9,9.1,0.9,15c0,5.2,3.7,8.2,9.6,9.6l1.7,0.4l-0.1,9.1c-2.8-0.5-4.7-2.3-4.9-5.2
	H0c0.2,7,4.8,10.9,12.1,11.5L12,44.6z M16.2,34.2l0.1-8.1c2.7,0.8,4.1,1.9,4.1,3.9C20.4,32.2,18.8,33.7,16.2,34.2z M12.3,18.4
	c-2.2-0.7-3.7-1.9-3.7-3.9c0-1.8,1.3-3.3,3.8-3.8L12.3,18.4z"/>
</svg>
