<svg width="43" height="43" viewBox="0 0 43 43" xmlns="http://www.w3.org/2000/svg">
<style type="text/css">
	.st0{fill:#B2B09D;}
</style>
<path class="st0" d="M23.5,43h-4c-1.9,0-3.4-1.5-3.4-3.4v-9.4c0-0.4-0.3-0.7-0.7-0.7c-1.9,0-3.4-1.5-3.4-3.4V16.1c0-2.2,1.8-4,4-4
	h10.7c2.2,0,4,1.8,4,4v10.1c0,1.9-1.5,3.4-3.4,3.4c-0.4,0-0.7,0.3-0.7,0.7v9.4C26.9,41.5,25.4,43,23.5,43z M16.1,14.8
	c-0.7,0-1.3,0.6-1.3,1.3v10.1c0,0.4,0.3,0.7,0.7,0.7c1.9,0,3.4,1.5,3.4,3.4v9.4c0,0.4,0.3,0.7,0.7,0.7h4c0.4,0,0.7-0.3,0.7-0.7v-9.4
	c0-1.9,1.5-3.4,3.4-3.4c0.4,0,0.7-0.3,0.7-0.7V16.1c0-0.7-0.6-1.3-1.3-1.3H16.1z"/>
<path class="st0" d="M21.5,10.7c-3,0-5.4-2.4-5.4-5.4c0-3,2.4-5.4,5.4-5.4c3,0,5.4,2.4,5.4,5.4C26.9,8.3,24.5,10.7,21.5,10.7z
	 M21.5,2.7c-1.5,0-2.7,1.2-2.7,2.7c0,1.5,1.2,2.7,2.7,2.7c1.5,0,2.7-1.2,2.7-2.7C24.2,3.9,23,2.7,21.5,2.7z"/>
<path class="st0" d="M35.6,43h-4.7c-0.7,0-1.3-0.6-1.3-1.3c0-0.7,0.6-1.3,1.3-1.3h4.7c0.4,0,0.7-0.3,0.7-0.7v-8.1
	c0-1.9,1.5-3.4,3.4-3.4c0.4,0,0.7-0.3,0.7-0.7V17.5c0-0.7-0.6-1.3-1.3-1.3h-4c-0.7,0-1.3-0.6-1.3-1.3c0-0.7,0.6-1.3,1.3-1.3h4
	c2.2,0,4,1.8,4,4v10.1c0,1.9-1.5,3.4-3.4,3.4c-0.4,0-0.7,0.3-0.7,0.7v8.1C39,41.5,37.5,43,35.6,43z"/>
<path class="st0" d="M12.1,43H7.4C5.5,43,4,41.5,4,39.6v-8.1c0-0.4-0.3-0.7-0.7-0.7c-1.9,0-3.4-1.5-3.4-3.4V17.5c0-2.2,1.8-4,4-4h4
	c0.7,0,1.3,0.6,1.3,1.3c0,0.7-0.6,1.3-1.3,1.3H4c-0.7,0-1.3,0.6-1.3,1.3v10.1c0,0.4,0.3,0.7,0.7,0.7c1.9,0,3.4,1.5,3.4,3.4v8.1
	c0,0.4,0.3,0.7,0.7,0.7h4.7c0.7,0,1.3,0.6,1.3,1.3C13.4,42.4,12.8,43,12.1,43z"/>
<path class="st0" d="M34.9,12.1c-3,0-5.4-2.4-5.4-5.4c0-3,2.4-5.4,5.4-5.4c3,0,5.4,2.4,5.4,5.4C40.3,9.7,37.9,12.1,34.9,12.1z
	 M34.9,4c-1.5,0-2.7,1.2-2.7,2.7c0,1.5,1.2,2.7,2.7,2.7c1.5,0,2.7-1.2,2.7-2.7C37.6,5.2,36.4,4,34.9,4z"/>
<path class="st0" d="M8.1,12.1c-3,0-5.4-2.4-5.4-5.4c0-3,2.4-5.4,5.4-5.4c3,0,5.4,2.4,5.4,5.4C13.4,9.7,11,12.1,8.1,12.1z M8.1,4
	C6.6,4,5.4,5.2,5.4,6.7c0,1.5,1.2,2.7,2.7,2.7c1.5,0,2.7-1.2,2.7-2.7C10.8,5.2,9.5,4,8.1,4z"/>
</svg>
